<?xml version="1.0" encoding="UTF-8" standalone="no"?>
<!-- Created with Sodipodi ("http://www.sodipodi.com/") -->
<!-- Created by jmrivera (jmanuel1995@yahoo.es) 16-07-04 -->
<!-- tree_whit_fruits - arbol_con_frutas -->
<svg className='d-flex w-50' space="preserve" version="1.0" viewBox="0 0 670.93 802.78" xmlns="http://www.w3.org/2000/svg" xmlnscc="http://creativecommons.org/ns#" xmlnsdc="http://purl.org/dc/elements/1.1/" xmlnsrdf="http://www.w3.org/1999/02/22-rdf-syntax-ns#">
<g transform="matrix(1.3963 0 0 1.3174 -107.72 -277.16)" fill-rule="evenodd">
<path transform="matrix(1.2299 0 0 1.2222 3.9522 -105.04)" d="m251.27 403.25a95.88 89.267 0 1 1-191.76 0 95.88 89.267 0 1 1 191.76 0z"/>
<path transform="matrix(1.1314 0 0 1.1446 1.8401 -55.645)" d="m368.09 323.9a90.369 91.471 0 1 1-180.74 0 90.369 91.471 0 1 1 180.74 0z"/>
<path transform="matrix(1.1364 0 0 1.1494 -161.2 -132.75)" d="m632.58 438.51a96.982 95.88 0 1 1-193.96 0 96.982 95.88 0 1 1 193.96 0z"/>
<path d="m249.07 543.21c19.1 0.73 38.2 1.47 57.3 2.2 3.68 36.74 5.15 49.23 17.64 63.92 22.04-13.22 35.26-26.45 39.67-46.28 0 0 85.96-13.23 55.1 0-19.83 50.69-66.12 57.3-72.73 99.18-8.08 49.23 13.62 100.9 18.77 147.92-41.15-0.73-88.97 0.74-130.12 0 22.78-83.02 42.29-104.57 51.84-165.55-1.47-47.02-27.19-60.98-37.47-101.39z" fill="#b85e00" stroke="#000" stroke-width="18.25"/>
<path transform="matrix(1.1829 0 0 1.12 52.388 -54.341)" d="m279.92 480.39a90.369 82.655 0 1 1-180.73 0 90.369 82.655 0 1 1 180.73 0z"/>
<path transform="matrix(1.1071 0 0 1.1154 -36.525 -28.175)" d="m484.91 463.86a92.573 85.961 0 1 1-185.15 0 92.573 85.961 0 1 1 185.15 0z"/>
<path transform="translate(-2.2041 13.225)" d="m484.91 463.86a92.573 85.961 0 1 1-185.15 0 92.573 85.961 0 1 1 185.15 0z" fill="#80df00"/>
<path transform="translate(85.961 -6.6124)" d="m279.92 480.39a90.369 82.655 0 1 1-180.73 0 90.369 82.655 0 1 1 180.73 0z" fill="#80df00"/>
<path transform="translate(39.674 -15.429)" d="m251.27 403.25a95.88 89.267 0 1 1-191.76 0 95.88 89.267 0 1 1 191.76 0z" fill="#80df00"/>
<path transform="translate(-94.777 -66.124)" d="m632.58 438.51a96.982 95.88 0 1 1-193.96 0 96.982 95.88 0 1 1 193.96 0z" fill="#80df00"/>
<path transform="translate(37.47 -5.2227e-5)" d="m368.09 323.9a90.369 91.471 0 1 1-180.74 0 90.369 91.471 0 1 1 180.74 0z" fill="#80df00"/>
<path transform="matrix(.91304 0 0 .85714 69.504 -47.487)" d="m165.37 608.87a38.42 40.925 0 1 1-76.838 0 38.42 40.925 0 1 1 76.838 0z" fill="#ff5e00" stroke="#000" stroke-width="11.417"/>
<path transform="matrix(.80435 0 0 .7551 202.74 43.874)" d="m165.37 608.87a38.42 40.925 0 1 1-76.838 0 38.42 40.925 0 1 1 76.838 0z" fill="#ff5e00" stroke="#000" stroke-width="11.417"/>
<path transform="matrix(.76087 0 0 .69388 371.96 81.986)" d="m165.37 608.87a38.42 40.925 0 1 1-76.838 0 38.42 40.925 0 1 1 76.838 0z" fill="#ff5e00" stroke="#000" stroke-width="11.417"/>
<path transform="matrix(.80435 0 0 .7551 145.94 -93.1)" d="m165.37 608.87a38.42 40.925 0 1 1-76.838 0 38.42 40.925 0 1 1 76.838 0z" fill="#ff5e00" stroke="#000" stroke-width="11.417"/>
<path transform="matrix(.86956 0 0 .85714 258.77 -110.96)" d="m165.37 608.87a38.42 40.925 0 1 1-76.838 0 38.42 40.925 0 1 1 76.838 0z" fill="#ff5e00" stroke="#000" stroke-width="11.417"/>
<path transform="matrix(.69565 0 0 .67347 366.04 -58.43)" d="m165.37 608.87a38.42 40.925 0 1 1-76.838 0 38.42 40.925 0 1 1 76.838 0z" fill="#ff5e00" stroke="#000" stroke-width="11.417"/>
</g>
</svg>
